<svg width="106" height="80" viewBox="0 0 106 80" fill="none" xmlns="http://www.w3.org/2000/svg">
<path d="M81.5756 28.7975C84.6995 30.6707 80.4622 37.1323 88.7988 38.6036C91.1698 32.7628 90.5715 29.2616 81.7609 28.3829C80.5788 28.2656 81.1441 28.5394 81.5756 28.7975Z" fill="white"/>
<path d="M82.0711 20.5836C80.8973 20.6389 81.5089 20.8156 81.9915 20.9966C85.4766 22.3094 82.7873 29.0215 91.4413 29.127C92.3277 23.3523 90.7024 20.1681 82.0711 20.5836Z" fill="white"/>
<path d="M78.2884 36.9067C81.0857 39.2868 75.46 45.5456 83.4875 48.2181C87.6563 42.4007 87.2181 38.5126 78.5631 36.4887C77.3751 36.2097 77.8988 36.5749 78.2884 36.9067Z" fill="white"/>
<path d="M80.0619 13.0645C83.9005 13.79 82.8725 20.6873 91.6683 19.3962C91.05 13.7347 88.5274 10.9389 80.0409 12.6546C78.8789 12.8892 79.5342 12.9648 80.0619 13.0645Z" fill="white"/>
<path d="M66.3275 64.5749C73.0673 59.9512 74.9831 56.2678 67.4819 51.5594C66.4958 50.9419 66.8175 51.4605 67.0303 51.9087C68.5249 55.0519 60.7061 59.6964 66.3275 64.5749Z" fill="white"/>
<path d="M104.539 20.712C105.065 20.5177 105.718 20.3233 104.553 20.2973C98.9107 20.1675 95.0932 21.91 93.3011 25.6547C93.4125 23.4882 93.3488 21.3193 93.1025 19.1596C101.961 17.5561 99.0958 11.2653 102.58 9.31341C103.057 9.04532 103.666 8.76132 102.491 8.91379C96.8053 9.6594 93.4174 11.9213 92.5638 15.7909C92.2538 14.2863 91.8517 12.7892 91.3532 11.3038C94.8383 6.38201 91.1153 1.6009 83.7607 0.0878314C82.5166 -0.167685 83.0821 0.184173 83.5077 0.505869C86.5915 2.83069 81.084 9.2143 89.9785 11.6599C89.4809 10.1578 88.887 8.66312 88.1899 7.17794C87.6027 5.9238 88.556 6.4382 88.6273 7.00536C94.1648 18.8077 93.503 31.075 87.6027 42.7205C81.6371 54.4928 70.5215 64.9994 55.6621 71.8409C54.6233 72.3192 53.5317 73.0824 52.6017 73.9771C51.6709 73.0824 50.5793 72.3184 49.5412 71.8409C34.6819 65.0004 23.565 54.4941 17.6007 42.7227C11.6985 31.0778 11.0384 18.8096 16.5761 7.0075C16.6473 6.43951 17.6007 5.92678 17.0134 7.18008C16.3172 8.66544 15.7224 10.1601 15.2248 11.662C24.1194 9.21816 18.6119 2.83455 21.6957 0.508015C22.1205 0.184641 22.6851 -0.165541 21.4427 0.0899749C14.0888 1.60297 10.3642 6.38415 13.8501 11.306C13.3517 12.7913 12.9495 14.2866 12.6396 15.793C11.7859 11.9234 8.39893 9.66142 2.71212 8.91593C1.53757 8.76179 2.14663 9.04663 2.62332 9.31555C6.10755 11.2659 3.24158 17.5584 12.1008 19.1617C11.8545 21.3214 11.7909 23.4905 11.9023 25.6569C10.1103 21.912 6.29268 20.1695 0.650269 20.2995C-0.515058 20.3246 0.138401 20.519 0.664511 20.7142C4.49811 22.1292 3.32862 28.8749 12.2324 29.1153C12.5257 31.2289 12.9856 33.3334 13.603 35.417C10.9072 31.7367 6.66135 30.4776 1.03652 31.4669C-0.112889 31.6696 0.58413 31.771 1.15298 31.8916C5.31835 32.7839 5.80583 39.9711 14.7691 38.8417C15.3563 40.3697 16.029 41.8811 16.7855 43.3757C17.026 43.849 17.2739 44.3199 17.5303 44.789C14.0495 41.6097 9.58088 40.9588 4.25095 42.6619C3.11159 43.0255 3.84966 43.0423 4.45955 43.0992C8.9299 43.5098 10.9446 51.0899 19.9188 48.7356C21.0313 50.4112 22.2519 52.0507 23.5774 53.6465C19.7127 51.2496 15.4377 51.2597 10.8324 53.51C9.79864 54.016 10.5191 53.9439 11.124 53.923C15.5439 53.7906 19.0157 61.1587 27.2577 57.6963C28.8092 59.2621 30.4672 60.7735 32.2247 62.2203C27.7788 60.4032 23.5521 61.1102 19.5729 64.1697C18.6723 64.8626 19.3727 64.6682 19.9725 64.5543C24.3573 63.7065 29.7527 70.8476 37.0896 65.8922C39.1672 67.3264 41.3587 68.6785 43.6542 69.9394C38.9762 68.9257 35.1862 70.3558 32.2598 74.0503C31.5904 74.8931 32.2053 74.584 32.7465 74.3661C36.6899 72.7836 43.789 78.9939 49.4164 72.8406C50.2399 73.2888 51.1472 73.9154 51.9087 74.7071C51.3214 75.3806 50.8397 76.0995 50.5515 76.8116C50.3739 77.346 50.2717 77.9149 50.2608 78.5197C50.2642 78.5507 50.2642 78.5826 50.2617 78.6144C50.2625 78.8197 50.2734 79.0291 50.2968 79.2427C50.3278 79.5301 50.6537 79.7161 51.0257 79.6591C51.3968 79.6038 51.6733 79.3273 51.6431 79.0392C51.494 77.6736 51.9179 76.5065 52.6024 75.5373C53.2868 76.5066 53.7107 77.6753 53.5616 79.0392C53.5314 79.3274 53.8079 79.6038 54.179 79.6591C54.551 79.7152 54.8769 79.5293 54.9079 79.2427C54.9305 79.0299 54.9431 78.8196 54.9431 78.6144C54.9397 78.5817 54.9397 78.5507 54.9439 78.5197C54.933 77.9157 54.83 77.346 54.6532 76.8116C54.3642 76.1003 53.8824 75.3823 53.296 74.7071C54.0576 73.9154 54.9657 73.2888 55.7883 72.8406C61.4164 78.9932 68.5157 72.7819 72.4582 74.3661C72.9986 74.5831 73.6126 74.8931 72.9449 74.0503C70.0203 70.3557 66.2302 68.9256 61.5505 69.9394C63.846 68.6786 66.0376 67.3255 68.1152 65.8922C75.4523 70.8474 80.8474 63.7066 85.2322 64.5543C85.8329 64.6682 86.5332 64.8626 85.6318 64.1697C81.6524 61.111 77.4276 60.4033 72.98 62.2203C74.7384 60.7735 76.3956 59.2613 77.947 57.6963C86.1898 61.1589 89.6606 53.7915 94.0807 53.923C94.6864 53.9422 95.4069 54.0151 94.3723 53.51C89.7662 51.2606 85.4921 51.2497 81.6274 53.6465C82.9519 52.0506 84.1733 50.4111 85.286 48.7356C94.2601 51.0899 96.2748 43.5097 100.745 43.0992C101.354 43.0431 102.092 43.0264 100.954 42.6619C95.6238 40.9588 91.1546 41.6097 87.6744 44.789C87.9299 44.319 88.1787 43.8474 88.4192 43.3757C89.1757 41.882 89.8484 40.3697 90.4357 38.8417C99.3989 39.971 99.8864 32.7838 104.052 31.8916C104.621 31.7702 105.318 31.6696 104.168 31.4669C98.5434 30.4775 94.2984 31.7375 91.6017 35.417C92.2191 33.3334 92.6791 31.2291 92.9723 29.1153C101.874 28.8748 100.704 22.1284 104.538 20.7133L104.539 20.712Z" fill="white"/>
<path d="M75.9738 56.7813C81.4553 51.552 82.0601 47.7369 73.8634 44.5685C72.7643 44.1438 73.1991 44.5736 73.5116 44.9564C75.7165 47.6448 69.2509 53.1152 75.9738 56.7813Z" fill="white"/>
<path d="M54.4567 71.2468C54.6703 71.1337 54.8781 71.0332 55.0766 70.9402C62.5755 67.4886 64.5602 63.9357 59.1063 58.3797C58.3364 57.5931 58.4997 58.1661 58.5818 58.6511C59.1415 62.0567 50.3582 65.391 54.4567 71.2468Z" fill="white"/>
<path d="M23.6264 28.7977C24.0579 28.5397 24.6234 28.264 23.4413 28.383C14.6305 29.2618 14.0324 32.7628 16.4033 38.6036C24.7399 37.1325 20.504 30.6719 23.6264 28.7977Z" fill="white"/>
<path d="M23.2107 20.997C23.6932 20.8161 24.3048 20.6393 23.1311 20.584C14.4997 20.1685 12.8744 23.3519 13.76 29.1284C22.4141 29.0228 19.7241 22.3098 23.2107 20.997Z" fill="white"/>
<path d="M21.7143 48.2175C29.7417 45.5451 24.1161 39.2854 26.9134 36.9061C27.3021 36.576 27.8274 36.21 26.6369 36.4881C17.9836 38.5121 17.5454 42.3993 21.7143 48.2175Z" fill="white"/>
<path d="M13.5342 19.3956C22.3308 20.6883 21.3012 13.7893 25.1405 13.0639C25.6675 12.9642 26.3235 12.8888 25.1606 12.6543C16.675 10.9394 14.1543 13.7348 13.5342 19.3956Z" fill="white"/>
<path d="M38.8756 64.5745C44.4962 59.6962 36.6782 55.0517 38.1719 51.9083C38.3847 51.4592 38.7064 50.9407 37.7204 51.5589C30.2198 56.2671 32.1359 59.9508 38.8756 64.5745Z" fill="white"/>
<path d="M29.229 56.7817C35.9513 53.1164 29.4845 47.6458 31.6896 44.9566C32.0029 44.5746 32.4369 44.1432 31.3377 44.5687C23.1419 47.7364 23.7483 51.5523 29.229 56.7817Z" fill="white"/>
<path d="M50.1259 70.94C50.3228 71.0322 50.5306 71.1335 50.7459 71.2466C54.8433 65.3891 46.0611 62.0563 46.6223 58.6516C46.7036 58.1666 46.8661 57.5935 46.0979 58.3802C40.6431 63.9353 42.6269 67.4901 50.1258 70.9398L50.1259 70.94Z" fill="white"/>
</svg>
