<svg width="15" height="13" viewBox="0 0 15 13" fill="none" xmlns="http://www.w3.org/2000/svg">
<path fill-rule="evenodd" clip-rule="evenodd" d="M7.72361 0.0527903C7.893 0.13749 8 0.31062 8 0.5V12.5C8 12.6894 7.893 12.8625 7.72361 12.9472C7.55421 13.0319 7.35151 13.0136 7.2 12.9L3.33333 10H1.5C0.671573 10 0 9.3284 0 8.5V4.5C0 3.67158 0.671573 3 1.5 3H3.33333L7.2 0.1C7.35151 -0.0136287 7.55421 -0.0319067 7.72361 0.0527903ZM7 1.5L3.8 3.9C3.71345 3.96491 3.60819 4 3.5 4H1.5C1.22386 4 1 4.22386 1 4.5V8.5C1 8.77614 1.22386 9 1.5 9H3.5C3.60819 9 3.71345 9.0351 3.8 9.1L7 11.5V1.5ZM14.8536 4.14645C15.0488 4.34171 15.0488 4.65829 14.8536 4.85355L13.2071 6.5L14.8536 8.14645C15.0488 8.34171 15.0488 8.65829 14.8536 8.85355C14.6583 9.0488 14.3417 9.0488 14.1464 8.85355L12.5 7.20711L10.8536 8.85355C10.6583 9.0488 10.3417 9.0488 10.1464 8.85355C9.95118 8.65829 9.95118 8.34171 10.1464 8.14645L11.7929 6.5L10.1464 4.85355C9.95118 4.65829 9.95118 4.34171 10.1464 4.14645C10.3417 3.95118 10.6583 3.95118 10.8536 4.14645L12.5 5.79289L14.1464 4.14645C14.3417 3.95118 14.6583 3.95118 14.8536 4.14645Z" fill="#FFD976"/>
</svg>
