<svg width="15" height="14" viewBox="0 0 15 14" fill="none" xmlns="http://www.w3.org/2000/svg">
<path fill-rule="evenodd" clip-rule="evenodd" d="M7.51977 0.0511901C7.69246 0.135653 7.80197 0.311112 7.80197 0.503352V12.5838C7.80197 12.7761 7.69246 12.9516 7.51977 13.036C7.34707 13.1205 7.14134 13.0992 6.98959 12.9812L3.2429 10.0671H1.51006C0.676075 10.0671 0 9.39096 0 8.557V4.53018C0 3.6962 0.676077 3.02012 1.51006 3.02012H3.2429L6.98959 0.106035C7.14134 -0.0119959 7.34707 -0.0332776 7.51977 0.0511901ZM6.79527 1.53253L3.72464 3.9208C3.63628 3.98952 3.52755 4.02682 3.41561 4.02682H1.51006C1.23207 4.02682 1.00671 4.25219 1.00671 4.53018V8.557C1.00671 8.835 1.23207 9.06036 1.51006 9.06036H3.41561C3.52755 9.06036 3.63628 9.0977 3.72464 9.16636L6.79527 11.5547V1.53253ZM10.3473 2.86714C10.5325 2.74395 10.7824 2.79418 10.9057 2.97934C12.338 5.13217 12.338 7.95498 10.9057 10.1078C10.7824 10.293 10.5325 10.3432 10.3473 10.22C10.1621 10.0969 10.1119 9.8469 10.2351 9.66166C11.4876 7.7791 11.4876 5.30805 10.2351 3.42546C10.1119 3.24029 10.1621 2.99033 10.3473 2.86714ZM12.7635 0.433326C12.6197 0.263655 12.3656 0.242656 12.1959 0.386433C12.0263 0.530201 12.0053 0.784304 12.149 0.953974C14.8764 4.17268 14.8764 8.91451 12.149 12.1332C12.0053 12.3029 12.0263 12.5569 12.1959 12.7007C12.3656 12.8446 12.6197 12.8235 12.7635 12.6539C15.7455 9.13475 15.7455 3.95245 12.7635 0.433326Z" fill="#FFD976"/>
</svg>
